{
	"accessors" : 
	[
		{
			"bufferView" : 2,
			"byteOffset" : 0,
			"componentType" : 5126,
			"count" : 19990,
			"max" : 
			[
				1,
				1,
				1,
				1
			],
			"min" : 
			[
				0.006584956776350737,
				0.006584956776350737,
				0.006584956776350737,
				1
			],
			"name" : "accessor_color_m0-PolyPaper21_-12030",
			"type" : "VEC4"
		},
		{
			"bufferView" : 2,
			"byteOffset" : 319840,
			"componentType" : 5126,
			"count" : 12214,
			"max" : 
			[
				1,
				1,
				1,
				1
			],
			"min" : 
			[
				0.006584956776350737,
				0.006584956776350737,
				0.006584956776350737,
				1
			],
			"name" : "accessor_color_m1-PolyPaper21_-12036",
			"type" : "VEC4"
		},
		{
			"bufferView" : 0,
			"byteOffset" : 0,
			"componentType" : 5123,
			"count" : 31392,
			"max" : 
			[
				19989
			],
			"min" : 
			[
				0
			],
			"name" : "accessor_indices_0_m0-PolyPaper21_-12030",
			"type" : "SCALAR"
		},
		{
			"bufferView" : 0,
			"byteOffset" : 62784,
			"componentType" : 5123,
			"count" : 18612,
			"max" : 
			[
				12213
			],
			"min" : 
			[
				0
			],
			"name" : "accessor_indices_0_m1-PolyPaper21_-12036",
			"type" : "SCALAR"
		},
		{
			"bufferView" : 1,
			"byteOffset" : 239880,
			"componentType" : 5126,
			"count" : 19990,
			"max" : 
			[
				0.9999834,
				1,
				0.9999471
			],
			"min" : 
			[
				-0.9999835,
				-1,
				-0.9999084
			],
			"name" : "accessor_normal_m0-PolyPaper21_-12030",
			"type" : "VEC3"
		},
		{
			"bufferView" : 1,
			"byteOffset" : 626328,
			"componentType" : 5126,
			"count" : 12214,
			"max" : 
			[
				0.9969663,
				0.9999957,
				0.9994785
			],
			"min" : 
			[
				-0.9940155000000001,
				-0.9999543,
				-0.9997308
			],
			"name" : "accessor_normal_m1-PolyPaper21_-12036",
			"type" : "VEC3"
		},
		{
			"bufferView" : 1,
			"byteOffset" : 0,
			"componentType" : 5126,
			"count" : 19990,
			"max" : 
			[
				2.951679,
				2.933796,
				3.612104
			],
			"min" : 
			[
				-4.921381,
				0.4162225,
				-4.950608
			],
			"name" : "accessor_position_m0-PolyPaper21_-12030",
			"type" : "VEC3"
		},
		{
			"bufferView" : 1,
			"byteOffset" : 479760,
			"componentType" : 5126,
			"count" : 12214,
			"max" : 
			[
				2.150654,
				1.796713,
				3.267448
			],
			"min" : 
			[
				-4.202552,
				0.06467974999999999,
				-2.96463
			],
			"name" : "accessor_position_m1-PolyPaper21_-12036",
			"type" : "VEC3"
		}
	],
	"asset" : 
	{
		"copyright" : "Unknown",
		"generator" : "glTF 1-to-2 Upgrader for Google Blocks",
		"version" : "2.0"
	},
	"bufferViews" : 
	[
		{
			"buffer" : 0,
			"byteLength" : 100008,
			"byteOffset" : 0,
			"name" : "ushortBufferView",
			"target" : 34963
		},
		{
			"buffer" : 0,
			"byteLength" : 772896,
			"byteOffset" : 100008,
			"byteStride" : 12,
			"name" : "vec3BufferView",
			"target" : 34962
		},
		{
			"buffer" : 0,
			"byteLength" : 515264,
			"byteOffset" : 872904,
			"byteStride" : 16,
			"name" : "vec4BufferView",
			"target" : 34962
		}
	],
	"buffers" : 
	[
		{
			"byteLength" : 1388168,
			"name" : "model",
			"uri" : "model.bin"
		}
	],
	"materials" : 
	[
		{
			"alphaMode" : "OPAQUE",
			"doubleSided" : false,
			"name" : "BlocksPaper",
			"pbrMetallicRoughness" : 
			{
				"baseColorFactor" : 
				[
					1,
					1,
					1,
					1
				],
				"metallicFactor" : 0,
				"roughnessFactor" : 0.6
			}
		},
		{
			"alphaMode" : "BLEND",
			"doubleSided" : false,
			"name" : "BlocksGlass",
			"pbrMetallicRoughness" : 
			{
				"baseColorFactor" : 
				[
					0.2,
					0.2,
					1,
					0.3
				],
				"metallicFactor" : 1,
				"roughnessFactor" : 0.4
			}
		},
		{
			"alphaMode" : "OPAQUE",
			"doubleSided" : true,
			"name" : "BlocksGem",
			"pbrMetallicRoughness" : 
			{
				"baseColorFactor" : 
				[
					1,
					0.4,
					1,
					1
				],
				"metallicFactor" : 0,
				"roughnessFactor" : 0.1
			}
		}
	],
	"meshes" : 
	[
		{
			"name" : "mesh_m0-PolyPaper21_-12030",
			"primitives" : 
			[
				{
					"attributes" : 
					{
						"COLOR_0" : 0,
						"NORMAL" : 4,
						"POSITION" : 6
					},
					"indices" : 2,
					"material" : 0,
					"mode" : 4
				}
			]
		},
		{
			"name" : "mesh_m1-PolyPaper21_-12036",
			"primitives" : 
			[
				{
					"attributes" : 
					{
						"COLOR_0" : 1,
						"NORMAL" : 5,
						"POSITION" : 7
					},
					"indices" : 3,
					"material" : 0,
					"mode" : 4
				}
			]
		}
	],
	"nodes" : 
	[
		{
			"matrix" : 
			[
				1,
				0,
				0,
				0,
				0,
				1,
				0,
				0,
				0,
				0,
				1,
				0,
				0,
				0,
				0,
				1
			],
			"mesh" : 0,
			"name" : "node_MeshObject-1254498304-PolyPaper21"
		},
		{
			"matrix" : 
			[
				1,
				0,
				0,
				0,
				0,
				1,
				0,
				0,
				0,
				0,
				1,
				0,
				0,
				0,
				0,
				1
			],
			"mesh" : 1,
			"name" : "node_MeshObject-682419200-PolyPaper21"
		}
	],
	"scene" : 0,
	"scenes" : 
	[
		{
			"extras" : {},
			"name" : "defaultScene",
			"nodes" : 
			[
				0,
				1
			]
		}
	]
}